<svg xmlns="http://www.w3.org/2000/svg" xmlns:xlink="http://www.w3.org/1999/xlink" width="64.898" height="55.651" viewBox="0 0 64.898 55.651"><defs><linearGradient id="a" x1="0.207" y1="1.137" x2="0.837" y2="-0.257" gradientUnits="objectBoundingBox"><stop offset="0" stop-color="#5a79f3"/><stop offset="1" stop-color="#86a0ff"/></linearGradient></defs><g transform="translate(-383.62 -700.32)"><path d="M372.43,698.779c-8.008-8.633.394-20.408,2.4-29.407s6.345-16.011,15.665-15.435,9.161,5.4,13.364,17.26S419.684,681.2,415,696.548,380.438,707.412,372.43,698.779Z" transform="translate(52.077 28) rotate(3)" fill="#7c95f6" opacity="0.229"/><path d="M35.731,144.18a2.846,2.846,0,0,1-1.38-.357l-15.159-8.4a2.848,2.848,0,0,1-1.468-2.491V112.056a2.848,2.848,0,0,1,2.848-2.848H50.393a2.848,2.848,0,0,1,2.848,2.848V114.9a1.824,1.824,0,0,1-1.824,1.824H49.369a1.824,1.824,0,0,1-1.824-1.824H23.42v16.349l12.266,6.8,11.76-6.943v-4.87H38.281a2.848,2.848,0,0,1-2.848-2.848h0a2.848,2.848,0,0,1,2.848-2.848H50.294a2.848,2.848,0,0,1,2.848,2.848v9.344a2.848,2.848,0,0,1-1.4,2.453l-14.563,8.6A2.847,2.847,0,0,1,35.731,144.18Z" transform="translate(395.277 611.792)" fill="url(#a)"/></g></svg>