<svg xmlns="http://www.w3.org/2000/svg" xmlns:xlink="http://www.w3.org/1999/xlink" width="100.679" height="80.117" viewBox="0 0 100.679 80.117"><defs><linearGradient id="a" y1="1.338" x2="0.592" y2="0.282" gradientUnits="objectBoundingBox"><stop offset="0" stop-color="#ff5d0e"/><stop offset="1" stop-color="#ffad84"/></linearGradient><filter id="b" x="3.296" y="3.921" width="97.383" height="76.195" filterUnits="userSpaceOnUse"><feOffset dy="3" input="SourceAlpha"/><feGaussianBlur stdDeviation="10" result="c"/><feFlood flood-color="#ff712b" flood-opacity="0.698"/><feComposite operator="in" in2="c"/><feComposite in="SourceGraphic"/></filter><linearGradient id="d" y1="0.5" x2="1" y2="0.5" xlink:href="#a"/></defs><g transform="translate(-774.491 -410.534)"><path d="M374.349,693.185c-16.809-10.314-13.005-32.626-5.392-34.612s15.649,1.788,19.928,0,11.93-14.19,20.288-6.66,16.284,18.393,13.222,24.64c-2.137,4.361,3.164,14.933-.553,20.484-1.479,2.213-4.719,3.594-10.957,3.089C390.229,698.455,391.157,703.5,374.349,693.185Z" transform="translate(412.006 -238.974)" fill="#ffad84" opacity="0.229"/><g transform="translate(807.787 423.147)"><g transform="translate(0 6.311)"><path d="M865.405,486.6a5.571,5.571,0,0,0,5.448-4.44h-10.9A5.571,5.571,0,0,0,865.405,486.6Z" transform="translate(-846.714 -470.161)" fill="#ff874c"/><g transform="matrix(1, 0, 0, 1, -33.3, -18.92)" filter="url(#b)"><path d="M831.488,498.353h26.168a5.607,5.607,0,0,0,5.607-5.607V482.159H852.287a7.794,7.794,0,0,1-15.429,0H825.881v10.588A5.608,5.608,0,0,0,831.488,498.353Z" transform="translate(-792.59 -451.24)" fill="url(#a)"/></g><path d="M851.255,461.042h12.008v-4.148a5.607,5.607,0,0,0-5.607-5.607H831.488a5.607,5.607,0,0,0-5.607,5.607v4.148h25.375Z" transform="translate(-825.881 -451.287)" fill="url(#d)"/></g><rect height="2.243" transform="translate(37.383 16.066)" fill="#ffe9ad"/><path d="M891.171,476.388a1.122,1.122,0,0,1,1.122,1.122,7.8,7.8,0,0,1-.09,1.122h10.977v-2.243Z" transform="translate(-865.796 -460.322)" fill="#fbfcfe"/><path d="M837.889,476.388H825.881v2.243h10.977a7.787,7.787,0,0,1-.09-1.122A1.122,1.122,0,0,1,837.889,476.388Z" transform="translate(-825.881 -460.322)" fill="#fbfcfe"/><path d="M861.84,486.6a5.571,5.571,0,0,1-5.448-4.44h-2.267a7.794,7.794,0,0,0,15.429,0h-2.267A5.571,5.571,0,0,1,861.84,486.6Z" transform="translate(-843.148 -463.851)" fill="#fbfcfe"/><path d="M853.893,477.51a7.787,7.787,0,0,0,.09,1.122h15.429a7.787,7.787,0,0,0,.09-1.122,1.122,1.122,0,0,0-1.122-1.122H855.015A1.122,1.122,0,0,0,853.893,477.51Z" transform="translate(-843.006 -460.322)" fill="#fbfcfe"/></g></g></svg>