<svg xmlns="http://www.w3.org/2000/svg" xmlns:xlink="http://www.w3.org/1999/xlink" width="85.985" height="82.428" viewBox="0 0 85.985 82.428"><defs><linearGradient id="a" x1="1" y1="1.019" x2="-0.092" y2="0.078" gradientUnits="objectBoundingBox"><stop offset="0" stop-color="#5a79f3"/><stop offset="0.291" stop-color="#5572e2"/><stop offset="0.507" stop-color="#869fff"/><stop offset="0.719" stop-color="#718aeb"/><stop offset="1" stop-color="#86a0ff"/></linearGradient><filter id="b" x="3.412" y="0.06" width="63.787" height="82.369" filterUnits="userSpaceOnUse"><feOffset dy="5" input="SourceAlpha"/><feGaussianBlur stdDeviation="7.5" result="c"/><feFlood flood-color="#5673e3" flood-opacity="0.502"/><feComposite operator="in" in2="c"/><feComposite in="SourceGraphic"/></filter><linearGradient id="d" y1="1" x2="1.293" y2="-0.198" gradientUnits="objectBoundingBox"><stop offset="0" stop-color="#2943ac"/><stop offset="0.291" stop-color="#425dc3"/><stop offset="0.507" stop-color="#647cd8"/><stop offset="0.719" stop-color="#536cce"/><stop offset="1" stop-color="#86a0ff"/></linearGradient><filter id="e" x="22.199" y="0.06" width="63.787" height="82.369" filterUnits="userSpaceOnUse"><feOffset dy="5" input="SourceAlpha"/><feGaussianBlur stdDeviation="7.5" result="f"/><feFlood flood-color="#5673e3" flood-opacity="0.345"/><feComposite operator="in" in2="f"/><feComposite in="SourceGraphic"/></filter></defs><g transform="translate(-757.997 -209.319)"><path d="M373.506,690.08c-15.614-9.581-12.081-30.307-5.009-32.152s14.537,1.661,18.512,0,11.082-13.182,18.846-6.187,15.126,17.085,12.282,22.889c-1.985,4.051,2.939,13.871-.514,19.028-1.374,2.056-4.384,3.338-10.179,2.87C388.257,694.976,389.12,699.661,373.506,690.08Z" transform="matrix(-0.966, 0.259, -0.259, -0.966, 1342.912, 788.389)" fill="#7c95f6" opacity="0.229"/><g transform="translate(30 25)"><g transform="translate(753.909 201.879)"><g transform="matrix(1, 0, 0, 1, -25.91, -17.56)" filter="url(#b)"><path d="M663.9,246.173a30.1,30.1,0,0,1-9.611,1.568h-3.639a3.736,3.736,0,0,0-3.736,3.736v5.563a28.273,28.273,0,0,0,16.5,25.71,5.476,5.476,0,0,0,2.283.5V245.879A5.652,5.652,0,0,0,663.9,246.173Z" transform="translate(-621 -228.32)" fill="url(#a)"/></g><g transform="matrix(1, 0, 0, 1, -25.91, -17.56)" filter="url(#e)"><path d="M707.9,247.742H704.26a30.1,30.1,0,0,1-9.611-1.568,5.65,5.65,0,0,0-1.8-.294v37.369a5.476,5.476,0,0,0,2.283-.5,28.273,28.273,0,0,0,16.5-25.71v-5.563A3.736,3.736,0,0,0,707.9,247.742Z" transform="translate(-648.15 -228.32)" fill="url(#d)"/></g></g></g></g></svg>