<svg xmlns="http://www.w3.org/2000/svg" xmlns:xlink="http://www.w3.org/1999/xlink" width="90.67" height="62.662" viewBox="0 0 90.67 62.662"><defs><filter id="a" x="2.076" y="6.161" width="75.154" height="56.501" filterUnits="userSpaceOnUse"><feOffset dy="5" input="SourceAlpha"/><feGaussianBlur stdDeviation="5" result="b"/><feFlood flood-color="#f4811f" flood-opacity="0.302"/><feComposite operator="in" in2="b"/><feComposite in="SourceGraphic"/></filter><filter id="c" x="43.482" y="15.345" width="47.188" height="45.074" filterUnits="userSpaceOnUse"><feOffset dy="3" input="SourceAlpha"/><feGaussianBlur stdDeviation="5" result="d"/><feFlood flood-color="#faad3f" flood-opacity="0.161"/><feComposite operator="in" in2="d"/><feComposite in="SourceGraphic"/></filter></defs><g transform="translate(-863.257 -309.623)"><path d="M369.882,689.512c-13.425-8.238-11.218-25.025-5.138-26.611s6.422-11.337,13.616-14.343,20.319-.908,22.4,11.564,5.955,8.165,6.919,15.28-2.065,14.513-7.047,14.11C384.135,688.178,383.307,697.75,369.882,689.512Z" transform="matrix(-0.259, 0.966, -0.966, -0.259, 1638.103, 141.266)" fill="#f4811f" opacity="0.12"/><g transform="translate(880.333 325.784)"><g transform="translate(0 -0.001)"><path d="M97.825,48.756l-1.216-.486C90.9,61.125,68.168,53.31,66.8,57.134c-.228,2.583,12.412.491,21.448.929,2.756.133,4.137,2.214,2.967,5.6l2.3.007c2.658-8.288,11.143-4.058,11.5-6.793C104.435,55.082,95.267,56.881,97.825,48.756Z" transform="translate(-51.509 -37.451)" fill="#fff"/><g transform="matrix(1, 0, 0, 1, -17.08, -16.16)" filter="url(#a)"><path d="M40.359,25.8a3.472,3.472,0,0,0-.365-3.161A3.762,3.762,0,0,0,37.442,21.3L16.29,21.057c-.122,0-.243-.122-.365-.122a.228.228,0,0,1,0-.365c.122-.243.243-.365.486-.365l21.274-.243a7.649,7.649,0,0,0,6.2-4.619L45.1,12.183c0-.122.122-.243,0-.365A13.854,13.854,0,0,0,18.478,10.36,6.635,6.635,0,0,0,14.1,9.144a6.333,6.333,0,0,0-5.592,5.592,6.635,6.635,0,0,0,.122,2.188A8.876,8.876,0,0,0,0,25.8a4.987,4.987,0,0,0,.122,1.337.388.388,0,0,0,.365.365H39.508c.243,0,.486-.122.486-.365Z" transform="translate(17.08 15.16)" fill="#f4811f"/></g><g transform="matrix(1, 0, 0, 1, -17.08, -16.16)" filter="url(#c)"><path d="M186.543,49.863h-.608c-.122,0-.243.122-.365.243l-.851,2.918a3.471,3.471,0,0,0,.365,3.161,3.762,3.762,0,0,0,2.553,1.337l4.5.243c.122,0,.243.122.365.122a.228.228,0,0,1,0,.365c-.122.243-.243.365-.486.365l-4.619.243a7.649,7.649,0,0,0-6.2,4.619l-.243,1.094c-.122.122,0,.365.243.365h16.046a.322.322,0,0,0,.365-.365,13.218,13.218,0,0,0,.486-3.161,11.622,11.622,0,0,0-11.548-11.549" transform="translate(-122.42 -22.52)" fill="#faad3f"/></g></g></g></g></svg>