<svg xmlns="http://www.w3.org/2000/svg" xmlns:xlink="http://www.w3.org/1999/xlink" width="41.935" height="28.633" viewBox="0 0 41.935 28.633"><defs><linearGradient id="a" x1="0.5" x2="0.5" y2="1" gradientUnits="objectBoundingBox"><stop offset="0" stop-color="#5a79f3"/><stop offset="1" stop-color="#86a0ff"/></linearGradient><filter id="b" x="0" y="0.05" width="25.186" height="28.563" filterUnits="userSpaceOnUse"><feOffset dy="5" input="SourceAlpha"/><feGaussianBlur stdDeviation="2.5" result="c"/><feFlood flood-color="#6885f6" flood-opacity="0.302"/><feComposite operator="in" in2="c"/><feComposite in="SourceGraphic"/></filter><linearGradient id="d" x1="0.5" x2="0.5" y2="1" gradientUnits="objectBoundingBox"><stop offset="0" stop-color="#ff5d0e"/><stop offset="1" stop-color="#ffad84"/></linearGradient><filter id="e" x="16.938" y="0.023" width="24.998" height="28.61" filterUnits="userSpaceOnUse"><feOffset dy="5" input="SourceAlpha"/><feGaussianBlur stdDeviation="2.5" result="f"/><feFlood flood-color="#ff6419" flood-opacity="0.302"/><feComposite operator="in" in2="f"/><feComposite in="SourceGraphic"/></filter><filter id="h" x="11.875" y="0" width="18.302" height="28.593" filterUnits="userSpaceOnUse"><feOffset dy="5" input="SourceAlpha"/><feGaussianBlur stdDeviation="2.5" result="i"/><feFlood flood-color="#6885f6" flood-opacity="0.302"/><feComposite operator="in" in2="i"/><feComposite in="SourceGraphic"/></filter></defs><g transform="translate(-365.022 -436.17)"><g transform="matrix(1, 0, 0, 1, 365.02, 436.17)" filter="url(#b)"><path d="M382.708,452.535h-3.3v-6.483l-.446.666a1.652,1.652,0,0,1-1.372.732h-.006a1.65,1.65,0,0,1-1.372-.742l-.386-.585v6.4h-3.3v-11.9a1.651,1.651,0,0,1,3.029-.909l2.048,3.1,2.086-3.114a1.651,1.651,0,0,1,3.023.919Z" transform="translate(-365.02 -436.42)" fill="url(#a)"/></g><g transform="matrix(1, 0, 0, 1, 365.02, 436.17)" filter="url(#e)"><path d="M485.11,452.419h-3.3V442.111h-3.394V452.4h-3.3V440.46a1.651,1.651,0,0,1,1.651-1.651h6.7a1.651,1.651,0,0,1,1.651,1.651Z" transform="translate(-450.67 -436.29)" fill="url(#d)"/></g><g transform="matrix(1, 0, 0, 1, 365.02, 436.17)" filter="url(#h)"><path d="M447.752,452.263h-3.3V440.321a1.651,1.651,0,0,1,1.651-1.651h0a1.651,1.651,0,0,1,1.651,1.651Z" transform="translate(-425.07 -436.17)" fill="url(#a)"/></g></g></svg>