<svg xmlns="http://www.w3.org/2000/svg" xmlns:xlink="http://www.w3.org/1999/xlink" width="38.77" height="42.572" viewBox="0 0 38.77 42.572"><defs><linearGradient id="a" x1="2.476" y1="-0.538" x2="0.5" y2="0.664" gradientUnits="objectBoundingBox"><stop offset="0" stop-color="#314baf"/><stop offset="1" stop-color="#86a0ff"/></linearGradient><filter id="b" x="7.295" y="10.715" width="20.375" height="30.358" filterUnits="userSpaceOnUse"><feOffset dy="5" input="SourceAlpha"/><feGaussianBlur stdDeviation="2.5" result="c"/><feFlood flood-color="#7b95f5" flood-opacity="0.302"/><feComposite operator="in" in2="c"/><feComposite in="SourceGraphic"/></filter><filter id="e" x="0" y="14.554" width="20.375" height="26.518" filterUnits="userSpaceOnUse"><feOffset dy="5" input="SourceAlpha"/><feGaussianBlur stdDeviation="2.5" result="f"/><feFlood flood-color="#849efd" flood-opacity="0.302"/><feComposite operator="in" in2="f"/><feComposite in="SourceGraphic"/></filter><linearGradient id="g" x1="0.5" y1="-0.028" x2="0.218" y2="1.036" gradientUnits="objectBoundingBox"><stop offset="0" stop-color="#ff5d0e"/><stop offset="1" stop-color="#ffad84"/></linearGradient><filter id="h" x="10.785" y="0" width="27.985" height="42.572" filterUnits="userSpaceOnUse"><feOffset dy="5" input="SourceAlpha"/><feGaussianBlur stdDeviation="3" result="i"/><feFlood flood-color="#ff9b69" flood-opacity="0.302"/><feComposite operator="in" in2="i"/><feComposite in="SourceGraphic"/></filter></defs><g transform="translate(-1041.5 -2172)"><g transform="translate(1025.012 2176)"><g transform="matrix(1, 0, 0, 1, 16.49, -4)" filter="url(#b)"><path d="M179.635,207.358h-1.92a1.73,1.73,0,0,1-1.728-1.728v-11.9A1.73,1.73,0,0,1,177.716,192h1.92a1.73,1.73,0,0,1,1.728,1.728v11.9A1.73,1.73,0,0,1,179.635,207.358Z" transform="translate(-161.19 -178.79)" fill="url(#a)"/></g><g transform="matrix(1, 0, 0, 1, 16.49, -4)" filter="url(#e)"><path d="M27.635,283.518h-1.92a1.73,1.73,0,0,1-1.728-1.728v-8.063A1.73,1.73,0,0,1,25.716,272h1.92a1.73,1.73,0,0,1,1.728,1.728v8.063A1.73,1.73,0,0,1,27.635,283.518Z" transform="translate(-16.49 -254.95)" fill="url(#a)"/></g><g transform="matrix(1, 0, 0, 1, 16.49, -4)" filter="url(#h)"><path d="M285.916,24.572H284a1.73,1.73,0,0,1-1.728-1.728V6.911h-1.055a1.248,1.248,0,0,1-.947-2.06l.011-.013L284.384.255a.768.768,0,0,1,1.144,0l4.107,4.583.011.013a1.248,1.248,0,0,1-.947,2.06h-1.055V22.844A1.73,1.73,0,0,1,285.916,24.572Z" transform="translate(-260.18 4)" fill="url(#g)"/></g></g></g></svg>