<svg xmlns="http://www.w3.org/2000/svg" xmlns:xlink="http://www.w3.org/1999/xlink" width="38.402" height="36.34" viewBox="0 0 38.402 36.34"><defs><linearGradient id="a" x1="0.5" x2="0.5" y2="1" gradientUnits="objectBoundingBox"><stop offset="0" stop-color="#ff5d0e"/><stop offset="1" stop-color="#ffad84"/></linearGradient><linearGradient id="c" x1="0.5" x2="0.5" y2="1" gradientUnits="objectBoundingBox"><stop offset="0" stop-color="#5a79f3"/><stop offset="1" stop-color="#86a0ff"/></linearGradient><filter id="d" x="0" y="3.014" width="38.402" height="33.326" filterUnits="userSpaceOnUse"><feOffset dy="5" input="SourceAlpha"/><feGaussianBlur stdDeviation="2.5" result="e"/><feFlood flood-color="#6582f6" flood-opacity="0.302"/><feComposite operator="in" in2="e"/><feComposite in="SourceGraphic"/></filter></defs><g transform="translate(7.5 -17.84)"><g transform="translate(0 17.84)"><path d="M160.855,22.379l9.9-2.7-.524-1.06a1.4,1.4,0,0,0-1.869-.63L159.5,22.379Z" transform="translate(-155.052 -17.84)" fill="url(#a)"/><path d="M331.8,86.46a1.394,1.394,0,0,0-.368.05l-2.326.636L322,89.084h11.577l-.435-1.6A1.392,1.392,0,0,0,331.8,86.46Z" transform="translate(-313.02 -84.546)" fill="url(#a)"/><g transform="matrix(1, 0, 0, 1, -7.5, 0)" filter="url(#d)"><path d="M22.01,215.56H1.4A1.4,1.4,0,0,0,.05,216.589a1.444,1.444,0,0,0-.05.365v15.537a1.4,1.4,0,0,0,1.394,1.394H22.007a1.4,1.4,0,0,0,1.394-1.394V228.6H15.127a2.372,2.372,0,0,1-2.371-2.371v-3.1a2.367,2.367,0,0,1,2.368-2.368H23.4v-3.807A1.391,1.391,0,0,0,22.01,215.56Z" transform="translate(7.5 -210.05)" fill="url(#c)"/></g><path d="M503.048,437.126a1.4,1.4,0,0,0-.488-.29,1.423,1.423,0,0,0-.452-.075h-8.314a1.4,1.4,0,0,0-1.394,1.395v3.1a1.4,1.4,0,0,0,1.394,1.394h8.314a1.421,1.421,0,0,0,.452-.075,1.353,1.353,0,0,0,.488-.29,1.39,1.39,0,0,0,.455-1.029v-3.1A1.39,1.39,0,0,0,503.048,437.126Zm-6.342,2.859a.7.7,0,0,1-.7.7h-.463a.7.7,0,0,1-.7-.7v-.463a.683.683,0,0,1,.268-.547.7.7,0,0,1,.43-.151h.463a.7.7,0,0,1,.7.7v.463Z" transform="translate(-478.667 -425.078)" fill="url(#c)"/></g></g></svg>