<svg xmlns="http://www.w3.org/2000/svg" xmlns:xlink="http://www.w3.org/1999/xlink" width="50.773" height="28.744" viewBox="0 0 50.773 28.744"><defs><linearGradient id="a" x1="0.5" x2="0.5" y2="1" gradientUnits="objectBoundingBox"><stop offset="0" stop-color="#5a79f3"/><stop offset="1" stop-color="#86a0ff"/></linearGradient><filter id="b" x="0" y="0.044" width="25.268" height="28.673" filterUnits="userSpaceOnUse"><feOffset dy="5" input="SourceAlpha"/><feGaussianBlur stdDeviation="2.5" result="c"/><feFlood flood-color="#6e8bf8" flood-opacity="0.302"/><feComposite operator="in" in2="c"/><feComposite in="SourceGraphic"/></filter><filter id="e" x="11.886" y="0.017" width="25.079" height="28.721" filterUnits="userSpaceOnUse"><feOffset dy="5" input="SourceAlpha"/><feGaussianBlur stdDeviation="2.5" result="f"/><feFlood flood-color="#6e8bf8" flood-opacity="0.302"/><feComposite operator="in" in2="f"/><feComposite in="SourceGraphic"/></filter><linearGradient id="g" x1="0.5" x2="0.5" y2="1" gradientUnits="objectBoundingBox"><stop offset="0" stop-color="#ff5d0e"/><stop offset="1" stop-color="#ffad84"/></linearGradient><filter id="h" x="23.573" y="0" width="27.2" height="28.744" filterUnits="userSpaceOnUse"><feOffset dy="5" input="SourceAlpha"/><feGaussianBlur stdDeviation="2.5" result="i"/><feFlood flood-color="#ff7c3c" flood-opacity="0.302"/><feComposite operator="in" in2="i"/><feComposite in="SourceGraphic"/></filter></defs><g transform="translate(-365.022 -436.207)"><g transform="matrix(1, 0, 0, 1, 365.02, 436.21)" filter="url(#b)"><path d="M382.79,452.645h-3.329V446.11l-.45.671a1.665,1.665,0,0,1-1.383.738h-.006a1.664,1.664,0,0,1-1.383-.748l-.389-.59v6.45h-3.329V440.636a1.664,1.664,0,0,1,3.053-.917l2.065,3.129,2.1-3.139a1.665,1.665,0,0,1,3.047.927Z" transform="translate(-365.02 -436.43)" fill="url(#a)"/></g><g transform="matrix(1, 0, 0, 1, 365.02, 436.21)" filter="url(#e)"><path d="M452.351,438.807H445.6a1.665,1.665,0,0,0-1.664,1.664v12.037h3.329V449.07h3.422v3.459h3.329V440.471A1.665,1.665,0,0,0,452.351,438.807Zm-5.086,6.934v-3.605h3.422v3.605Z" transform="translate(-424.55 -436.29)" fill="url(#a)"/></g><g transform="matrix(1, 0, 0, 1, 365.02, 436.21)" filter="url(#h)"><path d="M522.2,445.581l4.154,6.871h-3.891l-2.209-3.653-2.209,3.653h-3.891l4.154-6.871-4.154-6.872,0,0h3.885l2.212,3.658,2.212-3.658h3.885l0,0Z" transform="translate(-483.08 -436.21)" fill="url(#g)"/></g></g></svg>