<svg xmlns="http://www.w3.org/2000/svg" xmlns:xlink="http://www.w3.org/1999/xlink" width="35.968" height="38.061" viewBox="0 0 35.968 38.061"><defs><linearGradient id="a" x1="0.5" x2="0.5" y2="1" gradientUnits="objectBoundingBox"><stop offset="0" stop-color="#ff5d0e"/><stop offset="1" stop-color="#ffad84"/></linearGradient><filter id="c" x="8.986" y="11.079" width="26.982" height="26.982" filterUnits="userSpaceOnUse"><feOffset dy="5" input="SourceAlpha"/><feGaussianBlur stdDeviation="2.5" result="d"/><feFlood flood-color="#ff854a" flood-opacity="0.302"/><feComposite operator="in" in2="d"/><feComposite in="SourceGraphic"/></filter><linearGradient id="e" x1="0.5" x2="0.5" y2="1" gradientUnits="objectBoundingBox"><stop offset="0" stop-color="#5a79f3"/><stop offset="1" stop-color="#86a0ff"/></linearGradient><filter id="g" x="0" y="20.815" width="25.53" height="17.247" filterUnits="userSpaceOnUse"><feOffset dy="5" input="SourceAlpha"/><feGaussianBlur stdDeviation="2.5" result="h"/><feFlood flood-color="#728ff9" flood-opacity="0.4"/><feComposite operator="in" in2="h"/><feComposite in="SourceGraphic"/></filter></defs><g transform="translate(-24.998 0)"><path d="M151.745,4.543h.749V6.091a.748.748,0,0,0,.749.749h3a.748.748,0,0,0,.749-.749V4.543h.749a.749.749,0,0,0,.529-1.278l-3-3.045a.749.749,0,0,0-1.059,0l-3,3.045a.749.749,0,0,0,.529,1.278Z" transform="translate(-114.005)" fill="url(#a)"/><g transform="matrix(1, 0, 0, 1, 25, 0)" filter="url(#c)"><path d="M246.991,272a5.991,5.991,0,1,0,5.991,5.991A5.991,5.991,0,0,0,246.991,272Z" transform="translate(-224.51 -258.42)" fill="url(#a)"/></g><path d="M91.749,169.247h13.48a.749.749,0,0,0,.749-.749v-.749a.749.749,0,0,0-.749-.749H91.749a.749.749,0,0,0-.749.749v.749A.749.749,0,0,0,91.749,169.247Z" transform="translate(-57.005 -158.663)" fill="url(#e)"/><g transform="matrix(1, 0, 0, 1, 25, 0)" filter="url(#g)"><path d="M61,467.749v.749a.749.749,0,0,0,.749.749H71.53a7.5,7.5,0,0,1-2-2.247H61.749a.749.749,0,0,0-.749.749Z" transform="translate(-53.5 -443.69)" fill="url(#e)"/></g><path d="M61,317.749v.749a.749.749,0,0,0,.749.749H68.64A7.392,7.392,0,0,1,69.53,317H61.749A.749.749,0,0,0,61,317.749Z" transform="translate(-28.502 -301.174)" fill="url(#e)"/><path d="M31.749,394.247h8.62A7.384,7.384,0,0,1,39.986,392H31.749a.749.749,0,0,0-.749.749v.749A.749.749,0,0,0,31.749,394.247Z" transform="translate(0 -372.43)" fill="url(#e)"/><path d="M31.749,244.247H42.141A7.46,7.46,0,0,1,47.475,242H31.749a.749.749,0,0,0-.749.749v.749A.749.749,0,0,0,31.749,244.247Z" transform="translate(0 -229.919)" fill="url(#e)"/><g transform="translate(45.385 17.132) rotate(7)"><path d="M0,0,4.1.783l.321.295L5.1,1.7,2.185,5.292Z" transform="translate(0 0)" fill="none" stroke="#fff" stroke-linecap="round" stroke-linejoin="round" stroke-width="0.5"/><path d="M2.4,1.946,0,0" transform="translate(0.214 0.152)" fill="none" stroke="#fff" stroke-width="0.3"/><path d="M1.493,0,0,1.3" transform="translate(2.605 0.787)" fill="none" stroke="#fff" stroke-width="0.5"/><path d="M2.478,0,0,.4" transform="translate(2.607 1.699)" fill="none" stroke="#fff" stroke-width="0.5"/><path d="M0,3.175.414,0" transform="translate(2.192 2.089)" fill="none" stroke="#fff" stroke-width="0.5"/></g></g></svg>