<svg xmlns="http://www.w3.org/2000/svg" xmlns:xlink="http://www.w3.org/1999/xlink" width="46" height="36.544" viewBox="0 0 46 36.544"><defs><linearGradient id="a" x1="0.5" x2="0.5" y2="1" gradientUnits="objectBoundingBox"><stop offset="0" stop-color="#5a79f3"/><stop offset="1" stop-color="#86a0ff"/></linearGradient><filter id="d" x="0" y="14.697" width="34.559" height="21.847" filterUnits="userSpaceOnUse"><feOffset dy="5" input="SourceAlpha"/><feGaussianBlur stdDeviation="2.5" result="e"/><feFlood flood-color="#5f7ef4" flood-opacity="0.302"/><feComposite operator="in" in2="e"/><feComposite in="SourceGraphic"/></filter><linearGradient id="f" x1="0.5" x2="0.5" y2="1" gradientUnits="objectBoundingBox"><stop offset="0" stop-color="#ff5d0e"/><stop offset="1" stop-color="#ffad84"/></linearGradient><filter id="i" x="22.141" y="19.385" width="23.859" height="17.058" filterUnits="userSpaceOnUse"><feOffset dy="5" input="SourceAlpha"/><feGaussianBlur stdDeviation="2.5" result="j"/><feFlood flood-color="#ff671e" flood-opacity="0.302"/><feComposite operator="in" in2="j"/><feComposite in="SourceGraphic"/></filter></defs><g transform="translate(-454.251 -556.957)"><path d="M479.456,556.957H468.235a.724.724,0,0,0-.724.724v1.888a.91.91,0,0,1-.937.91.936.936,0,0,1-.885-.948v-1.85a.724.724,0,0,0-.724-.724h-.53a2.269,2.269,0,0,0-2.269,2.269v2.307a2.27,2.27,0,0,0,2.27,2.27h15.02a2.27,2.27,0,0,0,2.269-2.27v-2.307A2.269,2.269,0,0,0,479.456,556.957Zm-3.587,4.243a.913.913,0,0,1-.891-.884.9.9,0,1,1,.891.884Zm3.26-.016a.9.9,0,1,1,1.058-1.059A.9.9,0,0,1,479.129,561.184Z" transform="translate(-0.415 0)" fill="url(#a)"/><path d="M479.456,626.827H468.235a.724.724,0,0,0-.724.724v1.888a.91.91,0,0,1-.937.91.936.936,0,0,1-.885-.948v-1.85a.724.724,0,0,0-.724-.724h-.53a2.269,2.269,0,0,0-2.269,2.269V631.4a2.27,2.27,0,0,0,2.27,2.271h15.02a2.27,2.27,0,0,0,2.269-2.271V629.1A2.269,2.269,0,0,0,479.456,626.827Zm-3.587,4.243a.913.913,0,0,1-.891-.884.9.9,0,1,1,.891.884Zm3.26-.016a.9.9,0,1,1,1.058-1.059A.9.9,0,0,1,479.129,631.054Z" transform="translate(-0.415 -61.282)" fill="url(#a)"/><g transform="matrix(1, 0, 0, 1, 454.25, 556.96)" filter="url(#d)"><path d="M479.456,696.86H468.235a.724.724,0,0,0-.724.724v1.888a.911.911,0,0,1-.937.91.936.936,0,0,1-.885-.948v-1.85a.724.724,0,0,0-.724-.724h-.53a2.269,2.269,0,0,0-2.269,2.269v2.307a2.27,2.27,0,0,0,2.27,2.271h15.02a2.27,2.27,0,0,0,2.269-2.271v-2.307A2.269,2.269,0,0,0,479.456,696.86Zm-3.587,4.243a.913.913,0,0,1-.891-.884.9.9,0,1,1,.891.884Zm3.26-.016a.9.9,0,1,1,1.058-1.059A.9.9,0,0,1,479.129,701.087Z" transform="translate(-454.67 -679.66)" fill="url(#a)"/></g><rect width="8.859" height="2.058" rx="1.029" transform="translate(483.893 572.011)" fill="url(#f)"/><rect width="8.859" height="2.058" rx="1.029" transform="translate(483.893 575.368)" fill="url(#f)"/><g transform="matrix(1, 0, 0, 1, 454.25, 556.96)" filter="url(#i)"><rect width="8.859" height="2.058" rx="1.029" transform="translate(29.64 21.89)" fill="url(#f)"/></g></g></svg>