<svg xmlns="http://www.w3.org/2000/svg" width="76" height="65" viewBox="0 0 76 65"><defs><linearGradient id="6qe2a" x1="21.66" x2="40.8" y1="24.22" y2="-6.51" gradientUnits="userSpaceOnUse"><stop offset="0" stop-color="#ff5d0e"/><stop offset="1" stop-color="#ffad84"/></linearGradient><mask id="6qe2c" width="2" height="2" x="-1" y="-1"><path fill="#fff" d="M15.4 11.07h45.17v33.25H15.4z"/><path d="M53.524 44.322H22.447c-3.89 0-7.043-3.486-7.043-7.786V11.07h38.12c3.89 0 7.043 3.486 7.043 7.786v17.68c0 4.3-3.153 7.786-7.043 7.786z"/></mask><filter id="6qe2b" width="101.17" height="94.25" x="-12.6" y="-16.93" filterUnits="userSpaceOnUse"><feOffset dy="5" in="SourceGraphic" result="FeOffset1805Out"/><feGaussianBlur in="FeOffset1805Out" result="FeGaussianBlur1806Out" stdDeviation="7.2 7.2"/></filter><linearGradient id="6qe2d" x1="60.03" x2="30.46" y1="42.77" y2="22.55" gradientUnits="userSpaceOnUse"><stop offset="0" stop-color="#5a79f3"/><stop offset="1" stop-color="#86a0ff"/></linearGradient></defs><g><g><g><g><g><g><path fill="url(#6qe2a)" d="M22.404 36.351a7 7 0 0 1-7-7V10.099a7 7 0 0 1 7-7h12.61a7 7 0 0 1 7 7V29.35a7 7 0 0 1-7 7z"/></g><g><g filter="url(#6qe2b)"><path fill="none" d="M53.524 44.322H22.447c-3.89 0-7.043-3.486-7.043-7.786V11.07h38.12c3.89 0 7.043 3.486 7.043 7.786v17.68c0 4.3-3.153 7.786-7.043 7.786z" mask="url(&quot;#6qe2c&quot;)"/><path fill="#7b96fc" fill-opacity=".41" d="M53.524 44.322H22.447c-3.89 0-7.043-3.486-7.043-7.786V11.07h38.12c3.89 0 7.043 3.486 7.043 7.786v17.68c0 4.3-3.153 7.786-7.043 7.786z"/></g><path fill="url(#6qe2d)" d="M53.524 44.322H22.447c-3.89 0-7.043-3.486-7.043-7.786V11.07h38.12c3.89 0 7.043 3.486 7.043 7.786v17.68c0 4.3-3.153 7.786-7.043 7.786z"/></g><g><g><path fill="#fff" d="M47.95 26.509l2.19-1.485 1.158 1.361zm-2.213 5.786l1.301-5.054 4.09-.15zm-3.194-9.391l3.86 4.004-1.328 5.161zm4.232 4.004l-.007.006v-.017zm2.633-2.231l-2.662 1.805-3.713-3.853zm2.97 1.78l-1.85-2.174a.39.39 0 0 0-.177-.117l-8.385-2.694a.388.388 0 0 0-.492.472l3.216 11.644a.39.39 0 0 0 .373.284c.1 0 .197-.038.27-.108l7.02-6.777a.388.388 0 0 0 .025-.53z"/></g></g></g></g></g></g></g></svg>