<svg xmlns="http://www.w3.org/2000/svg" xmlns:xlink="http://www.w3.org/1999/xlink" width="59.626" height="59.595" viewBox="0 0 59.626 59.595"><defs><linearGradient id="a" x1="-0.258" y1="0.493" x2="1.349" y2="0.508" gradientUnits="objectBoundingBox"><stop offset="0" stop-color="#ff5d0e"/><stop offset="1" stop-color="#ffad84"/></linearGradient><linearGradient id="b" x1="-0.174" y1="0.487" x2="1.208" y2="0.514" xlink:href="#a"/><linearGradient id="c" x1="-0.227" y1="0.499" x2="1.352" y2="0.501" xlink:href="#a"/><linearGradient id="d" x1="0.827" y1="0.309" x2="0.052" y2="1.558" gradientUnits="objectBoundingBox"><stop offset="0" stop-color="#5a79f3"/><stop offset="1" stop-color="#86a0ff"/></linearGradient><filter id="e" x="0" y="0" width="59.626" height="38.214" filterUnits="userSpaceOnUse"><feOffset dy="3" input="SourceAlpha"/><feGaussianBlur stdDeviation="3" result="f"/><feFlood flood-color="#7591fa" flood-opacity="0.184"/><feComposite operator="in" in2="f"/><feComposite in="SourceGraphic"/></filter><linearGradient id="g" x1="1.069" y1="-2.421" x2="0.277" y2="1.332" xlink:href="#d"/><filter id="h" x="0.373" y="34.853" width="58.88" height="24.743" filterUnits="userSpaceOnUse"><feOffset dy="3" input="SourceAlpha"/><feGaussianBlur stdDeviation="3" result="i"/><feFlood flood-color="#607ef4" flood-opacity="0.302"/><feComposite operator="in" in2="i"/><feComposite in="SourceGraphic"/></filter></defs><g transform="translate(9 6)"><g transform="translate(4.905 19.151)"><rect width="6.743" height="17.211" transform="translate(12.27)" fill="url(#a)"/><rect width="6.743" height="17.211" fill="url(#b)"/><rect width="6.743" height="17.211" transform="translate(25.074)" fill="url(#c)"/></g><g transform="matrix(1, 0, 0, 1, -9, -6)" filter="url(#e)"><path d="M864.64,263.724H828.748a2.862,2.862,0,0,1-1.834-5.058l16.9-14.111a4.5,4.5,0,0,1,5.765,0l16.9,14.111A2.862,2.862,0,0,1,864.64,263.724Z" transform="translate(-816.88 -237.51)" fill="url(#d)"/></g><circle cx="2.813" cy="2.813" r="2.813" transform="translate(18.001 9.547)" fill="#fcfcfe"/><g transform="matrix(1, 0, 0, 1, -9, -6)" filter="url(#h)"><path d="M861.744,330.789h-29.12a5.88,5.88,0,0,1-5.879-5.88v-.863h40.88v.863A5.88,5.88,0,0,1,861.744,330.789Z" transform="translate(-817.37 -283.19)" fill="url(#g)"/></g></g></svg>