<svg xmlns="http://www.w3.org/2000/svg" xmlns:xlink="http://www.w3.org/1999/xlink" width="117.038" height="89.519" viewBox="0 0 117.038 89.519"><defs><linearGradient id="a" x1="0.046" y1="1.591" x2="0.889" y2="-0.194" gradientUnits="objectBoundingBox"><stop offset="0" stop-color="#5a79f3"/><stop offset="1" stop-color="#86a0ff"/></linearGradient></defs><g transform="translate(-496.957 -1275.56)"><path d="M378.532,726.162c-25.125-15.417-20.995-46.834-9.615-49.8s12.019-21.218,25.483-26.843,30.571.04,34.466,23.381,42.655-2.027,23.6,48.647c-2.21,3.308-7.054,5.372-16.379,4.618C405.207,723.666,403.658,741.58,378.532,726.162Z" transform="translate(137 628.055)" fill="#5c7cf4" opacity="0.08"/><g transform="translate(539.719 1291)"><path d="M76.849,102.11h3.879a4.774,4.774,0,0,1,4.774,4.774v13.128H70.882a4.774,4.774,0,0,0-4.774,4.774v2.984a4.774,4.774,0,0,0,4.774,4.774H85.5v13.128a4.774,4.774,0,0,1-4.774,4.774H21.055a4.774,4.774,0,0,1-4.774-4.774V100.916a8.354,8.354,0,0,1,8.354-8.354h47.44a4.774,4.774,0,0,1,4.774,4.774Z" transform="translate(-13.613 -78.753)" fill="#f9fafe"/><path d="M76.846,97.337H29.7a8.354,8.354,0,0,0-8.354,8.354v40.043c0,3.265-4.9,3.439-5.066.178-.009-.187-.006-45.144-.006-44.995a8.354,8.354,0,0,1,8.354-8.354h47.44a4.774,4.774,0,0,1,4.774,4.774Z" transform="translate(-13.61 -78.754)" fill="#5c7cf4" opacity="0.1"/><path d="M129.6,124.562v4.774H80.668a2.387,2.387,0,0,1,0-4.774Z" transform="translate(-66.364 -105.98)" fill="#5c7cf4" opacity="0.1"/><path d="M142.446,20.281c0,8.648,0,4.9-.009,16.689H107.221V20.281A4.28,4.28,0,0,1,111.5,16h26.665A4.28,4.28,0,0,1,142.446,20.281Z" transform="translate(-90.986 -13.614)" fill="#fff"/><path d="M140,18.406A27.912,27.912,0,0,1,124.956,36.97H107.221V20.281A4.28,4.28,0,0,1,111.5,16h26.665A1.908,1.908,0,0,1,140,18.406Z" transform="translate(-90.986 -13.614)" fill="#5c7cf4" opacity="0.1"/><path d="M369.675,276.562v12.531h-14.62a4.774,4.774,0,0,1-4.774-4.774v-2.984a4.774,4.774,0,0,1,4.774-4.774Z" transform="translate(-297.786 -235.304)" fill="#eef2fe"/><path d="M111.5,16h6.844a11.124,11.124,0,0,1-11.125,11.123V20.282A4.28,4.28,0,0,1,111.5,16Z" transform="translate(-90.986 -13.615)" fill="#5c7cf4" opacity="0.2"/><path d="M279.9,20.282l0,6.843A11.124,11.124,0,0,1,268.771,16h6.845A4.28,4.28,0,0,1,279.9,20.282Z" transform="translate(-228.436 -13.615)" fill="#5c7cf4" opacity="0.2"/><path d="M277.447,18.4a30.464,30.464,0,0,1-2.96,7.317A11.119,11.119,0,0,1,268.771,16c.071,0,6.9,0,6.974,0A1.912,1.912,0,0,1,277.447,18.4Z" transform="translate(-228.436 -13.613)" fill="#5c7cf4" opacity="0.2"/><path d="M67.115,20.969H65.623V18.582a7.169,7.169,0,0,0-7.161-7.161,2.387,2.387,0,1,0,0,4.774,2.39,2.39,0,0,1,2.387,2.387v2.387h-7.01c0-3.655.006-11.966.007-14.3A6.674,6.674,0,0,0,47.179,0H20.515a6.674,6.674,0,0,0-6.667,6.667v4.755H11.022A10.753,10.753,0,0,0,.281,22.163V66.918a7.169,7.169,0,0,0,7.161,7.161H67.115a7.169,7.169,0,0,0,7.161-7.161V28.13a7.169,7.169,0,0,0-7.161-7.161ZM69.5,51.4H57.269a2.39,2.39,0,0,1-2.387-2.387V46.032a2.39,2.39,0,0,1,2.387-2.387H69.5ZM18.622,20.969V15.686A13.547,13.547,0,0,0,29.534,4.774H38.16A13.548,13.548,0,0,0,49.068,15.685l0,5.284Zm30.45-14.3,0,4.123a8.769,8.769,0,0,1-6.013-6.015H47.18A1.894,1.894,0,0,1,49.072,6.665ZM20.515,4.774h4.123a8.768,8.768,0,0,1-6.015,6.015V6.667a1.9,1.9,0,0,1,1.893-1.893ZM67.115,69.3H7.442a2.39,2.39,0,0,1-2.387-2.387V22.163A5.974,5.974,0,0,1,11.022,16.2h2.826v4.818a2.387,2.387,0,0,0,.456,4.729H67.115A2.39,2.39,0,0,1,69.5,28.13V38.871H57.269a7.169,7.169,0,0,0-7.161,7.161v2.984a7.169,7.169,0,0,0,7.161,7.161H69.5V66.918A2.39,2.39,0,0,1,67.115,69.3Zm-46.843-37a2.387,2.387,0,0,1-2.387,2.387H14.3a2.387,2.387,0,1,1,0-4.774h3.58A2.387,2.387,0,0,1,20.271,32.307Zm14.918,0A2.387,2.387,0,0,1,32.8,34.694h-3.58a2.387,2.387,0,1,1,0-4.774H32.8A2.387,2.387,0,0,1,35.19,32.307ZM20.271,62.741a2.387,2.387,0,0,1-2.387,2.387H14.3a2.387,2.387,0,0,1,0-4.774h3.58A2.387,2.387,0,0,1,20.271,62.741Zm14.918,0A2.387,2.387,0,0,1,32.8,65.127h-3.58a2.387,2.387,0,0,1,0-4.774H32.8A2.387,2.387,0,0,1,35.19,62.741ZM36.234,15v.927a2.387,2.387,0,0,1-4.774,0V15a2.387,2.387,0,0,1,4.774,0Z" fill="url(#a)"/></g></g></svg>