<svg xmlns="http://www.w3.org/2000/svg" xmlns:xlink="http://www.w3.org/1999/xlink" width="104.151" height="89.519" viewBox="0 0 104.151 89.519"><defs><linearGradient id="a" x1="0.287" y1="1.225" x2="0.632" gradientUnits="objectBoundingBox"><stop offset="0" stop-color="#5a79f3"/><stop offset="1" stop-color="#86a0ff"/></linearGradient></defs><g transform="translate(-1275.957 -1275.56)"><path d="M378.532,726.162c-25.125-15.417-20.995-46.834-9.615-49.8s12.019-21.218,25.483-26.843,30.571.04,34.466,23.381,42.655-2.027,23.6,48.647c-2.21,3.308-7.054,5.372-16.379,4.618C405.207,723.666,403.658,741.58,378.532,726.162Z" transform="translate(916 628.055)" fill="#5f88f4" opacity="0.08"/><g transform="translate(1306 1290.902)"><g transform="translate(2.391 2.489)"><path d="M401.746,392.683v4.184a4.782,4.782,0,0,1-4.781,4.781h-4.184A4.782,4.782,0,0,1,388,396.867v-4.184a4.782,4.782,0,0,1,4.781-4.781h4.184A4.782,4.782,0,0,1,401.746,392.683Z" transform="translate(-332.419 -332.351)" fill="#fff"/><path d="M215.746,392.683v4.184a4.782,4.782,0,0,1-4.781,4.781h-4.184A4.782,4.782,0,0,1,202,396.867v-4.184a4.782,4.782,0,0,1,4.781-4.781h4.184A4.782,4.782,0,0,1,215.746,392.683Z" transform="translate(-174.21 -332.351)" fill="#fff"/><path d="M29.746,392.683v4.184a4.782,4.782,0,0,1-4.781,4.781H20.781A4.782,4.782,0,0,1,16,396.867v-4.184a4.782,4.782,0,0,1,4.781-4.781h4.183A4.782,4.782,0,0,1,29.746,392.683Z" transform="translate(-16 -332.351)" fill="#fff"/><path d="M202.288,16.1a8.095,8.095,0,1,1-8.094,8.1A8.1,8.1,0,0,1,202.288,16.1Z" transform="translate(-167.57 -16.102)" fill="#fff"/></g><path d="M204.714,16.32a.9.9,0,0,1-.3,1.75,8.106,8.106,0,0,0-8.151,8.213.9.9,0,0,1-1.745.3A8.117,8.117,0,0,1,204.714,16.32Z" transform="translate(-165.121 -13.443)" fill="#5c7bf3" opacity="0.2"/><path d="M182.79,175.117v1.6a3.1,3.1,0,0,1-3.1,3.1H158.1a3.1,3.1,0,0,1-3.1-3.1v-1.6a4.1,4.1,0,0,1,2.426-3.74c5.289-2.362,5.236-2.428,6.1-2.428h10.739c.868,0,.835.078,6.1,2.428a4.1,4.1,0,0,1,2.426,3.74Z" transform="translate(-131.841 -143.623)" fill="#fff"/><path d="M174.141,168.811a.421.421,0,0,1-.026.842c-9.219,0-8.913-.084-9.713.273l-4.833,2.158a4.1,4.1,0,0,0-2.426,3.74c0,.3-.007.582-.01.854a1.066,1.066,0,0,1-2.126.1c-.01-.149-.007-.084-.007-1.812a4.1,4.1,0,0,1,2.426-3.74c5.287-2.361,5.236-2.428,6.1-2.428C170.042,168.8,172.741,168.731,174.141,168.811Z" transform="translate(-131.841 -143.472)" fill="#5c7bf3"/><path d="M37.093,21.1a10.5,10.5,0,1,0-10.5-10.5A10.514,10.514,0,0,0,37.093,21.1Zm0-16.224A5.721,5.721,0,1,1,31.371,10.6,5.728,5.728,0,0,1,37.093,4.879ZM23.159,38.588h27.79A2.391,2.391,0,0,0,53.34,36.2V31.5A6.494,6.494,0,0,0,49.5,25.572l-5.438-2.428c-.654-.292.006-.208-13.037-.208-.683,0-.515,0-6.413,2.636A6.494,6.494,0,0,0,20.768,31.5v4.7A2.391,2.391,0,0,0,23.159,38.588ZM25.549,31.5a1.707,1.707,0,0,1,1.01-1.557l4.973-2.22H42.575l4.973,2.22a1.707,1.707,0,0,1,1.01,1.557v2.311H25.549ZM67.235,55.657v-3a7.18,7.18,0,0,0-7.172-7.172H39.444V42.95a2.391,2.391,0,1,0-4.781,0v2.54H14.045a7.18,7.18,0,0,0-7.172,7.172v3A7.18,7.18,0,0,0,0,62.821V67a7.18,7.18,0,0,0,7.172,7.172h4.183A7.18,7.18,0,0,0,18.527,67V62.821a7.18,7.18,0,0,0-6.873-7.164v-3a2.393,2.393,0,0,1,2.391-2.391H34.663v5.386a7.18,7.18,0,0,0-6.873,7.164V67a7.18,7.18,0,0,0,7.172,7.172h4.183A7.18,7.18,0,0,0,46.317,67V62.821a7.18,7.18,0,0,0-6.873-7.164V50.271H60.063a2.393,2.393,0,0,1,2.391,2.391v3a7.18,7.18,0,0,0-6.873,7.164V67a7.18,7.18,0,0,0,7.172,7.172h4.183A7.18,7.18,0,0,0,74.108,67V62.821A7.18,7.18,0,0,0,67.235,55.657ZM13.746,62.821V67A2.393,2.393,0,0,1,11.355,69.4H7.172A2.393,2.393,0,0,1,4.781,67V62.821a2.393,2.393,0,0,1,2.391-2.391h4.183A2.393,2.393,0,0,1,13.746,62.821Zm27.79,0V67A2.393,2.393,0,0,1,39.146,69.4H34.962A2.393,2.393,0,0,1,32.572,67V62.821a2.393,2.393,0,0,1,2.391-2.391h4.183A2.393,2.393,0,0,1,41.536,62.821ZM69.327,67A2.393,2.393,0,0,1,66.936,69.4H62.752A2.393,2.393,0,0,1,60.362,67V62.821a2.393,2.393,0,0,1,2.391-2.391h4.183a2.393,2.393,0,0,1,2.391,2.391Z" fill="url(#a)"/></g></g></svg>