<svg xmlns="http://www.w3.org/2000/svg" xmlns:xlink="http://www.w3.org/1999/xlink" width="118.618" height="89.519" viewBox="0 0 118.618 89.519"><defs><linearGradient id="a" x1="0.131" y1="1.302" x2="1.452" gradientUnits="objectBoundingBox"><stop offset="0" stop-color="#5a79f3"/><stop offset="1" stop-color="#86a0ff"/></linearGradient></defs><g transform="translate(-875.957 -1275.56)"><path d="M378.532,726.162c-25.125-15.417-20.995-46.834-9.615-49.8s12.019-21.218,25.483-26.843,30.571.04,34.466,23.381,42.655-2.027,23.6,48.647c-2.21,3.308-7.054,5.372-16.379,4.618C405.207,723.666,403.658,741.58,378.532,726.162Z" transform="translate(516 628.055)" fill="#5c7cf4" opacity="0.08"/><g transform="translate(909.907 1291)"><path d="M57.962,16c6.081.129,7.219,8.641,1.4,10.4A26.487,26.487,0,0,0,40.4,51.83V82.85a2.387,2.387,0,0,1-2.391,2.387l-4.526-.006A2.387,2.387,0,0,1,31.1,82.845V42.528A26.533,26.533,0,0,1,57.962,16Z" transform="translate(-13.616 -13.606)" opacity="0.1" fill="url(#a)"/><path d="M84.667,62.832a7.012,7.012,0,0,1-4.775,6.636v2.223a2.387,2.387,0,0,1-4.775,0V69.468a7.012,7.012,0,0,1-4.775-6.636,2.387,2.387,0,0,1,4.775,0,2.229,2.229,0,0,0,2.226,2.226h.322a2.226,2.226,0,0,0,.726-4.331l-3.33-1.148a7,7,0,0,1,.056-13.255V44.1a2.387,2.387,0,1,1,4.775,0v2.223a7.012,7.012,0,0,1,4.775,6.636,2.387,2.387,0,1,1-4.775,0,2.229,2.229,0,0,0-2.226-2.226h-.322a2.226,2.226,0,0,0-.726,4.331l3.33,1.148A7,7,0,0,1,84.667,62.832Zm-12.2-34.142a28.689,28.689,0,1,0-57.379,0V71.623a2.387,2.387,0,0,0,4.775,0V28.689a23.914,23.914,0,1,1,47.829,0V42.526a2.387,2.387,0,0,0,4.775,0ZM43.782,10.83A17.879,17.879,0,0,0,25.923,28.689V49a17.835,17.835,0,0,0,2.564,9.225,2.387,2.387,0,0,0,4.087-2.469A13.06,13.06,0,0,1,30.7,49V28.689a13.084,13.084,0,0,1,26.169,0,2.387,2.387,0,1,0,4.775,0A17.88,17.88,0,0,0,43.782,10.83ZM59.254,37.068a2.387,2.387,0,0,0-2.387,2.387V49A13.1,13.1,0,0,1,40.1,61.555a2.387,2.387,0,1,0-1.342,4.583A17.884,17.884,0,0,0,61.641,49V39.455a2.387,2.387,0,0,0-2.387-2.387ZM43.782,55.831a2.387,2.387,0,0,0,0-4.775A2.256,2.256,0,0,1,41.528,48.8a2.387,2.387,0,1,0-4.775,0A7.037,7.037,0,0,0,43.782,55.831Zm4.642-10.443A2.387,2.387,0,0,0,50.811,43V28.689a7.029,7.029,0,1,0-14.058,0V37.94a2.387,2.387,0,0,0,4.775,0V28.689a2.254,2.254,0,1,1,4.508,0V43A2.387,2.387,0,0,0,48.424,45.388Z" fill="url(#a)"/></g></g></svg>