<svg xmlns="http://www.w3.org/2000/svg" width="28" height="28" viewBox="0 0 28 28"><defs><clipPath id="xwi4a"><path fill="#fff" d="M5 28a5 5 0 0 1-5-5V5a5 5 0 0 1 5-5h18a5 5 0 0 1 5 5v18a5 5 0 0 1-5 5z"/></clipPath><clipPath id="xwi4b"><path d="M5 28a5 5 0 0 1-5-5V5a5 5 0 0 1 5-5h18a5 5 0 0 1 5 5v18a5 5 0 0 1-5 5z"/></clipPath></defs><g><g><g><path fill="#fff" d="M5 28a5 5 0 0 1-5-5V5a5 5 0 0 1 5-5h18a5 5 0 0 1 5 5v18a5 5 0 0 1-5 5z"/><path fill="none" stroke="#707070" stroke-miterlimit="20" stroke-width="2" d="M5 28a5 5 0 0 1-5-5V5a5 5 0 0 1 5-5h18a5 5 0 0 1 5 5v18a5 5 0 0 1-5 5z" clip-path="url(&quot;#xwi4a&quot;)"/></g><g clip-path="url(#xwi4b)"><g><path fill="#d80027" d="M-7 28V0h42v28z"/></g><g><g><path fill="#ffda44" d="M7.677 8.55l1.203 3.7h3.89l-3.147 2.287 1.202 3.7-3.148-2.286-3.147 2.287 1.202-3.7-3.148-2.287h3.891z"/></g><g><path fill="#ffda44" d="M15.255 20.857L14.075 20l-1.18.857.45-1.387-1.18-.858h1.459l.45-1.388.452 1.388h1.459l-1.18.858z"/></g><g><path fill="#ffda44" d="M18.334 16.619h-1.459l-.45 1.387-.451-1.387h-1.46l1.181-.858-.45-1.387 1.18.857 1.18-.857-.451 1.387z"/></g><g><path fill="#ffda44" d="M18.334 11.38l-1.18.858.45 1.387-1.18-.857-1.18.857.451-1.387-1.18-.858h1.459l.45-1.387.451 1.387z"/></g><g><path fill="#ffda44" d="M15.255 7.142l-.45 1.388 1.18.857h-1.46l-.45 1.388-.451-1.388h-1.46l1.181-.857-.45-1.388 1.18.858z"/></g></g></g></g></g></svg>