<svg xmlns="http://www.w3.org/2000/svg" width="28" height="29" viewBox="0 0 28 29"><defs><clipPath id="i5x3a"><path fill="#fff" d="M5 29a5 5 0 0 1-5-5V6a5 5 0 0 1 5-5h18a5 5 0 0 1 5 5v18a5 5 0 0 1-5 5z"/></clipPath><clipPath id="i5x3b"><path d="M5 29a5 5 0 0 1-5-5V6a5 5 0 0 1 5-5h18a5 5 0 0 1 5 5v18a5 5 0 0 1-5 5z"/></clipPath></defs><g><g><g><path fill="#fff" d="M5 29a5 5 0 0 1-5-5V6a5 5 0 0 1 5-5h18a5 5 0 0 1 5 5v18a5 5 0 0 1-5 5z"/><path fill="none" stroke="#707070" stroke-miterlimit="20" stroke-width="2" d="M5 29a5 5 0 0 1-5-5V6a5 5 0 0 1 5-5h18a5 5 0 0 1 5 5v18a5 5 0 0 1-5 5z" clip-path="url(&quot;#i5x3a&quot;)"/></g><g clip-path="url(#i5x3b)"><g><path fill="#f0f0f0" d="M-3 29V1h42v28z"/></g><g><g><path fill="#d80027" d="M-3 8V4.5h42V8z"/></g><g><path fill="#d80027" d="M-3 15v-3.5h42V15z"/></g><g><path fill="#d80027" d="M-3 21.999v-3.5h42V22z"/></g><g><path fill="#d80027" d="M-3 29v-3.5h42V29z"/></g></g><g><path fill="#2e52b2" d="M-3 16.077V1h21v15.077z"/></g><g><g><path fill="#f0f0f0" d="M5.189 7.176l-.339 1.04H3.757l.885.644-.339 1.04.886-.643.884.643-.338-1.04.885-.643H5.526z"/></g><g><path fill="#f0f0f0" d="M5.526 11.971l-.337-1.04-.339 1.04H3.757l.885.643-.339 1.04.886-.642.884.643-.338-1.04.885-.644z"/></g><g><path fill="#f0f0f0" d="M.903 11.971l-.338-1.04-.338 1.04H-.867l.885.643-.338 1.04.885-.642.885.643-.338-1.04.885-.644z"/></g><g><path fill="#f0f0f0" d="M.565 7.176l-.338 1.04H-.867l.885.644L-.32 9.9l.885-.643.885.643-.338-1.04.885-.643H.903z"/></g><g><path fill="#f0f0f0" d="M5.189 3.421L4.85 4.462H3.757l.885.643-.339 1.04.886-.643.884.643-.338-1.04.885-.643H5.526z"/></g><g><path fill="#f0f0f0" d="M.565 3.421L.227 4.462H-.867l.885.643-.338 1.04.885-.643.885.643-.338-1.04.885-.643H.903z"/></g><g><path fill="#f0f0f0" d="M9.812 7.176l-.338 1.04H8.38l.885.644-.338 1.04.885-.643.885.643-.338-1.04.885-.643H10.15z"/></g><g><path fill="#f0f0f0" d="M10.15 11.971l-.338-1.04-.338 1.04H8.38l.885.643-.338 1.04.885-.642.885.643-.338-1.04.885-.644z"/></g><g><path fill="#f0f0f0" d="M14.773 11.971l-.338-1.04-.338 1.04h-1.094l.885.643-.338 1.04.885-.642.885.643-.338-1.04.885-.644z"/></g><g><path fill="#f0f0f0" d="M14.435 7.176l-.338 1.04h-1.094l.885.644-.338 1.04.885-.643.885.643-.338-1.04.885-.643h-1.094z"/></g><g><path fill="#f0f0f0" d="M9.812 3.421l-.338 1.041H8.38l.885.643-.338 1.04.885-.643.885.643-.338-1.04.885-.643H10.15z"/></g><g><path fill="#f0f0f0" d="M14.435 3.421l-.338 1.041h-1.094l.885.643-.338 1.04.885-.643.885.643-.338-1.04.885-.643h-1.094z"/></g></g></g></g></g></svg>