<svg xmlns="http://www.w3.org/2000/svg" width="28" height="28" viewBox="0 0 28 28"><defs><clipPath id="ucnha"><path fill="#fff" d="M5 28a5 5 0 0 1-5-5V5a5 5 0 0 1 5-5h18a5 5 0 0 1 5 5v18a5 5 0 0 1-5 5z"/></clipPath><clipPath id="ucnhb"><path d="M5 28a5 5 0 0 1-5-5V5a5 5 0 0 1 5-5h18a5 5 0 0 1 5 5v18a5 5 0 0 1-5 5z"/></clipPath></defs><g><g><g><path fill="#fff" d="M5 28a5 5 0 0 1-5-5V5a5 5 0 0 1 5-5h18a5 5 0 0 1 5 5v18a5 5 0 0 1-5 5z"/><path fill="none" stroke="#707070" stroke-miterlimit="20" stroke-width="2" d="M5 28a5 5 0 0 1-5-5V5a5 5 0 0 1 5-5h18a5 5 0 0 1 5 5v18a5 5 0 0 1-5 5z" clip-path="url(&quot;#ucnha&quot;)"/></g><g clip-path="url(#ucnhb)"><g><path fill="#f0f0f0" d="M-7 28V0h42v28z"/></g><g><path fill="#ff9811" d="M-7 9.333V0h42v9.333z"/></g><g><path fill="#6da544" d="M-7 28v-9.333h42V28z"/></g><g><path fill="#0052b4" d="M10.4 14a3.6 3.6 0 1 1 7.2 0 3.6 3.6 0 0 1-7.2 0z"/></g><g><path fill="#f0f0f0" d="M11.75 14a2.25 2.25 0 1 1 4.5 0 2.25 2.25 0 0 1-4.5 0z"/></g><g><path fill="#0052b4" d="M14 11.223l.694 1.574 1.711-.186L15.39 14l1.016 1.389-1.71-.186L14 16.777l-.694-1.574-1.711.186L12.61 14l-1.016-1.389 1.71.186z"/></g></g></g></g></svg>