<svg xmlns="http://www.w3.org/2000/svg" width="28" height="28" viewBox="0 0 28 28"><defs><clipPath id="wn1ua"><path fill="#fff" d="M5 28a5 5 0 0 1-5-5V5a5 5 0 0 1 5-5h18a5 5 0 0 1 5 5v18a5 5 0 0 1-5 5z"/></clipPath><clipPath id="wn1ub"><path d="M5 28a5 5 0 0 1-5-5V5a5 5 0 0 1 5-5h18a5 5 0 0 1 5 5v18a5 5 0 0 1-5 5z"/></clipPath></defs><g><g><g><path fill="#fff" d="M5 28a5 5 0 0 1-5-5V5a5 5 0 0 1 5-5h18a5 5 0 0 1 5 5v18a5 5 0 0 1-5 5z"/><path fill="none" stroke="#707070" stroke-miterlimit="20" stroke-width="2" d="M5 28a5 5 0 0 1-5-5V5a5 5 0 0 1 5-5h18a5 5 0 0 1 5 5v18a5 5 0 0 1-5 5z" clip-path="url(&quot;#wn1ua&quot;)"/></g><g clip-path="url(#wn1ub)"><g><path fill="#f0f0f0" d="M-7 28V0h42v28z"/></g><g><path fill="#a2001d" d="M-7 14V0h42v14z"/></g></g></g></g></svg>