<svg xmlns="http://www.w3.org/2000/svg" width="28" height="28" viewBox="0 0 28 28"><defs><clipPath id="pb2ia"><path fill="#fff" d="M5 28a5 5 0 0 1-5-5V5a5 5 0 0 1 5-5h18a5 5 0 0 1 5 5v18a5 5 0 0 1-5 5z"/></clipPath><clipPath id="pb2ib"><path d="M5 28a5 5 0 0 1-5-5V5a5 5 0 0 1 5-5h18a5 5 0 0 1 5 5v18a5 5 0 0 1-5 5z"/></clipPath></defs><g><g><g><path fill="#fff" d="M5 28a5 5 0 0 1-5-5V5a5 5 0 0 1 5-5h18a5 5 0 0 1 5 5v18a5 5 0 0 1-5 5z"/><path fill="none" stroke="#707070" stroke-miterlimit="20" stroke-width="2" d="M5 28a5 5 0 0 1-5-5V5a5 5 0 0 1 5-5h18a5 5 0 0 1 5 5v18a5 5 0 0 1-5 5z" clip-path="url(&quot;#pb2ia&quot;)"/></g><g clip-path="url(#pb2ib)"><g><g><path fill="#f0f0f0" d="M0 28V0h42v28z"/></g></g><g><path fill="#0052b4" d="M42 0v14H21L0 0z"/></g><g><path fill="#d80027" d="M42 14v14H0l21-14z"/></g><g><g><path fill="#ffda44" d="M13.281 14l-2.238-1.053 1.192-2.168-2.43.465-.309-2.455-1.693 1.806L6.11 8.789l-.308 2.455-2.43-.465 1.191 2.168L2.325 14l2.238 1.053-1.192 2.168 2.431-.465.308 2.455 1.693-1.806 1.693 1.806.308-2.455 2.43.465-1.191-2.168z"/></g><g><path fill="#ffda44" d="M1.787 2.647l.745 1.042 1.22-.387-.76 1.03.745 1.042-1.215-.405L1.762 6l.01-1.28-1.215-.405 1.22-.386z"/></g><g><path fill="#ffda44" d="M1.787 22l.745 1.042 1.22-.387-.76 1.03.745 1.042-1.215-.404-.76 1.03.01-1.28-1.215-.405 1.22-.387z"/></g><g><path fill="#ffda44" d="M17.259 12.324l-.745 1.041-1.22-.386.76 1.03-.745 1.042 1.215-.405.76 1.03-.01-1.28 1.215-.405-1.22-.387z"/></g></g></g></g></g></svg>