<svg xmlns="http://www.w3.org/2000/svg" width="28" height="29" viewBox="0 0 28 29"><defs><clipPath id="k85aa"><path fill="#fff" d="M5 29a5 5 0 0 1-5-5V6a5 5 0 0 1 5-5h18a5 5 0 0 1 5 5v18a5 5 0 0 1-5 5z"/></clipPath><clipPath id="k85ab"><path d="M5 29a5 5 0 0 1-5-5V6a5 5 0 0 1 5-5h18a5 5 0 0 1 5 5v18a5 5 0 0 1-5 5z"/></clipPath></defs><g><g><g><path fill="#fff" d="M5 29a5 5 0 0 1-5-5V6a5 5 0 0 1 5-5h18a5 5 0 0 1 5 5v18a5 5 0 0 1-5 5z"/><path fill="none" stroke="#707070" stroke-miterlimit="20" stroke-width="2" d="M5 29a5 5 0 0 1-5-5V6a5 5 0 0 1 5-5h18a5 5 0 0 1 5 5v18a5 5 0 0 1-5 5z" clip-path="url(&quot;#k85aa&quot;)"/></g><g clip-path="url(#k85ab)"><g><path fill="#f0f0f0" d="M-7 1V28.999h42V1z"/></g><g><path fill="#0052b4" d="M-7 29V1h42v28z"/></g><g><path fill="#f0f0f0" d="M-7 10.333V1h42v9.333z"/></g><g><path fill="#d80027" d="M-7 29v-9.334h42V29z"/></g></g></g></g></svg>