<svg xmlns="http://www.w3.org/2000/svg" width="28" height="28" viewBox="0 0 28 28"><defs><clipPath id="3xhua"><path fill="#fff" d="M5 28a5 5 0 0 1-5-5V5a5 5 0 0 1 5-5h18a5 5 0 0 1 5 5v18a5 5 0 0 1-5 5z"/></clipPath><clipPath id="3xhub"><path d="M5 28a5 5 0 0 1-5-5V5a5 5 0 0 1 5-5h18a5 5 0 0 1 5 5v18a5 5 0 0 1-5 5z"/></clipPath></defs><g><g><g><path fill="#fff" d="M5 28a5 5 0 0 1-5-5V5a5 5 0 0 1 5-5h18a5 5 0 0 1 5 5v18a5 5 0 0 1-5 5z"/><path fill="none" stroke="#707070" stroke-miterlimit="20" stroke-width="2" d="M5 28a5 5 0 0 1-5-5V5a5 5 0 0 1 5-5h18a5 5 0 0 1 5 5v18a5 5 0 0 1-5 5z" clip-path="url(&quot;#3xhua&quot;)"/></g><g clip-path="url(#3xhub)"><g><path fill="#d80027" d="M9.13 0H-7v28h42V0z"/></g><g><path fill="#ffda44" d="M14 5.902l1.86 5.721h6.015l-4.867 3.536 1.86 5.722L14 17.345 9.133 20.88l1.859-5.722-4.867-3.536h6.016z"/></g></g></g></g></svg>