<svg xmlns="http://www.w3.org/2000/svg" xmlns:xlink="http://www.w3.org/1999/xlink" width="49.72" height="55.007" viewBox="0 0 49.72 55.007"><defs><linearGradient id="a" x1="0.894" y1="0.041" x2="-0.662" y2="0.954" gradientUnits="objectBoundingBox"><stop offset="0" stop-color="#5c7bf4"/><stop offset="1" stop-color="#2e3e7a"/></linearGradient><linearGradient id="b" x1="0.672" y1="1.105" x2="0.128" y2="0.239" gradientUnits="objectBoundingBox"><stop offset="0" stop-color="#5a79f3"/><stop offset="1" stop-color="#86a0ff"/></linearGradient><filter id="c" x="0" y="0" width="49.72" height="55.007" filterUnits="userSpaceOnUse"><feOffset dx="5" dy="4" input="SourceAlpha"/><feGaussianBlur stdDeviation="5" result="d"/><feFlood flood-color="#6280f5" flood-opacity="0.467"/><feComposite operator="in" in2="d"/><feComposite in="SourceGraphic"/></filter></defs><g transform="translate(-434.802 -219.119)"><g transform="translate(444.802 230.119)"><g transform="translate(0)"><path d="M540.617,294.273v-13.3a2.643,2.643,0,0,1,2.643-2.643h0a2.643,2.643,0,0,1,2.643,2.643v9.552a3.751,3.751,0,0,1-3.751,3.751Z" transform="translate(-520.896 -269.266)" fill="url(#a)"/><g transform="matrix(1, 0, 0, 1, -10, -11)" filter="url(#c)"><path d="M464.764,264.582V247.374a3.9,3.9,0,0,1,3.9-3.9h11.921a3.9,3.9,0,0,1,3.9,3.9v21.108H468.664A3.9,3.9,0,0,1,464.764,264.582Z" transform="translate(-454.76 -232.47)" fill="url(#b)"/></g><g transform="translate(4.026 8.407)"><path d="M491.037,277.572H481.13a.88.88,0,0,1-.881-.881h0a.881.881,0,0,1,.881-.881h9.908a.881.881,0,0,1,.881.881h0A.881.881,0,0,1,491.037,277.572Z" transform="translate(-480.249 -275.811)" fill="#fff"/><g transform="translate(0 4.171)"><path d="M491.037,293.616H481.13a.881.881,0,0,1-.881-.881h0a.88.88,0,0,1,.881-.881h9.908a.881.881,0,0,1,.881.881h0A.881.881,0,0,1,491.037,293.616Z" transform="translate(-480.249 -291.855)" fill="#fff"/></g><g transform="translate(0 8.342)"><path d="M486.194,309.659H481.13a.88.88,0,0,1-.881-.881h0a.881.881,0,0,1,.881-.881h5.064a.881.881,0,0,1,.881.881h0A.88.88,0,0,1,486.194,309.659Z" transform="translate(-480.249 -307.898)" fill="#fff"/></g></g></g></g></g></svg>