<svg xmlns="http://www.w3.org/2000/svg" xmlns:xlink="http://www.w3.org/1999/xlink" width="53.491" height="59.789" viewBox="0 0 53.491 59.789"><defs><linearGradient id="a" x1="0.895" x2="0.088" y2="1.084" gradientUnits="objectBoundingBox"><stop offset="0" stop-color="#bcffee"/><stop offset="1" stop-color="#46d191"/></linearGradient><filter id="b" x="0" y="0" width="53.491" height="59.789" filterUnits="userSpaceOnUse"><feOffset dx="2" dy="5" input="SourceAlpha"/><feGaussianBlur stdDeviation="5" result="c"/><feFlood flood-color="#72e2b3" flood-opacity="0.404"/><feComposite operator="in" in2="c"/><feComposite in="SourceGraphic"/></filter><linearGradient id="d" x1="1.698" y1="0.102" x2="-0.437" y2="1.13" gradientUnits="objectBoundingBox"><stop offset="0" stop-color="#81e8bf"/><stop offset="1" stop-color="#3eaa7d"/></linearGradient></defs><g transform="translate(-451.764 -233.474)"><g transform="translate(464.764 243.474)"><g transform="translate(0)"><g transform="matrix(1, 0, 0, 1, -13, -10)" filter="url(#b)"><path d="M464.764,268.618v-20.5a4.645,4.645,0,0,1,4.645-4.645h14.2a4.645,4.645,0,0,1,4.645,4.645v25.144H469.409A4.645,4.645,0,0,1,464.764,268.618Z" transform="translate(-451.76 -233.47)" fill="url(#a)"/></g><path d="M540.617,297.322V281.476a3.149,3.149,0,0,1,3.149-3.149h0a3.149,3.149,0,0,1,3.149,3.149v11.378a4.468,4.468,0,0,1-4.468,4.469Z" transform="translate(-517.126 -267.533)" fill="url(#d)"/><path d="M22.575,118.631a.767.767,0,0,1-.372-.1l-4.085-2.263a.768.768,0,0,1-.4-.671v-5.625a.767.767,0,0,1,.767-.767h8.036a.767.767,0,0,1,.767.767v.767a.491.491,0,0,1-.491.491H26.25a.491.491,0,0,1-.491-.491h-6.5v4.405l3.305,1.831,3.169-1.871V113.8H23.262a.767.767,0,0,1-.767-.767h0a.767.767,0,0,1,.767-.767H26.5a.767.767,0,0,1,.767.767v2.518a.767.767,0,0,1-.377.661l-3.924,2.317A.767.767,0,0,1,22.575,118.631Z" transform="translate(-10.946 -97.908)" fill="#fff"/></g></g></g></svg>