<svg xmlns="http://www.w3.org/2000/svg" xmlns:xlink="http://www.w3.org/1999/xlink" width="19.021" height="14.447" viewBox="0 0 19.021 14.447"><defs><linearGradient id="a" x1="0.5" x2="0.5" y2="1" gradientUnits="objectBoundingBox"><stop offset="0" stop-color="#81e8bf"/><stop offset="1" stop-color="#3eaa7d"/></linearGradient></defs><path d="M16.763,45.945H2.258A2.217,2.217,0,0,0,0,48.113V58.224a2.217,2.217,0,0,0,2.258,2.168H16.763a2.217,2.217,0,0,0,2.258-2.168V48.113A2.217,2.217,0,0,0,16.763,45.945Zm0,12.533H2.258c-.183,0-.343-.119-.343-.254V49.45l6.561,5.539a.747.747,0,0,0,.482.176h1.108a.748.748,0,0,0,.482-.176l6.561-5.539v8.774C17.107,58.359,16.946,58.478,16.763,58.478ZM9.511,53.264,3.13,47.859H15.892Z" transform="translate(0 -45.945)" fill="url(#a)"/></svg>