<svg xmlns="http://www.w3.org/2000/svg" xmlns:xlink="http://www.w3.org/1999/xlink" width="62.849" height="52.824" viewBox="0 0 62.849 52.824"><defs><linearGradient id="a" x1="0.948" y1="0.882" x2="0.18" y2="0.227" gradientUnits="objectBoundingBox"><stop offset="0" stop-color="#5a79f3"/><stop offset="1" stop-color="#86a0ff"/></linearGradient><filter id="b" x="0" y="0" width="62.849" height="52.824" filterUnits="userSpaceOnUse"><feOffset dy="10" input="SourceAlpha"/><feGaussianBlur stdDeviation="3" result="c"/><feFlood flood-color="#5c7af3" flood-opacity="0.169"/><feComposite operator="in" in2="c"/><feComposite in="SourceGraphic"/></filter><linearGradient id="d" x1="1.336" y1="3.745" x2="-0.542" y2="-3.543" xlink:href="#a"/></defs><g transform="translate(9)"><g transform="matrix(1, 0, 0, 1, -9, 0)" filter="url(#b)"><rect width="44.849" height="33.824" rx="9" transform="translate(9)" fill="url(#a)"/></g><path d="M123.546,705.21h22.192a2.065,2.065,0,0,1,2.066,2.065h0a2.065,2.065,0,0,1-2.066,2.065H123.546a2.065,2.065,0,0,1-2.065-2.065h0A2.065,2.065,0,0,1,123.546,705.21Z" transform="translate(-112.218 -668.072)" fill="url(#d)"/><path d="M148.28,656.079l-6.578,6.578-6.578-6.578-6.578,6.578" transform="translate(-115.989 -641.848)" fill="none" stroke="#fcfcfe" stroke-linecap="round" stroke-linejoin="round" stroke-width="4"/></g></svg>