<svg xmlns="http://www.w3.org/2000/svg" xmlns:xlink="http://www.w3.org/1999/xlink" width="218.478" height="40.39" viewBox="0 0 218.478 40.39"><defs><linearGradient id="a" x1="0.568" y1="1.185" x2="0.627" y2="-0.272" gradientUnits="objectBoundingBox"><stop offset="0" stop-color="#5a79f3"/><stop offset="1" stop-color="#86a0ff"/></linearGradient><linearGradient id="b" y1="1.223" x2="0.774" y2="0.224" gradientUnits="objectBoundingBox"><stop offset="0" stop-color="#1e253d"/><stop offset="1" stop-color="#686d7d"/></linearGradient><linearGradient id="c" x1="0.343" y1="1.087" x2="0.841" y2="-0.091" gradientUnits="objectBoundingBox"><stop offset="0" stop-color="#415ed3"/><stop offset="1" stop-color="#849dfd"/></linearGradient></defs><g transform="translate(-325 -71.531)"><path d="M7.886,2.382h4.541V-17.572h7.638V-21.7H.248v4.128H7.886ZM18.929-14.578V2.382h4.2V-6.562a3.913,3.913,0,0,1,4.232-4.3,4.193,4.193,0,0,1,3.028,1.1l1.892-3.647a6.436,6.436,0,0,0-4.369-1.617,5,5,0,0,0-4.782,2.408l-.31-1.961Zm22.913-.344a8.489,8.489,0,0,0-8.773,8.842c0,4.885,3.3,8.842,8.807,8.842a8.468,8.468,0,0,0,8.842-8.842A8.574,8.574,0,0,0,41.842-14.923Zm.034,3.819a4.79,4.79,0,0,1,4.61,5.023c0,2.58-1.548,4.989-4.61,4.989s-4.61-2.408-4.61-4.989C37.266-8.627,38.849-11.1,41.876-11.1ZM70.294,2.382V-6.528c0-5.333-3.2-8.326-7.19-8.326a7.649,7.649,0,0,0-5.573,2.546l-.275-2.305H53.5v17h4.163v-8.67A4.462,4.462,0,0,1,62-11.035c2.683,0,4.094,1.961,4.094,4.541V2.382Z" transform="translate(385 101.003)" fill="#1e253d"/><path d="M6.06-17.4h6.812c5.78,0,5.814,8.532,0,8.532H6.06Zm6.812-4.335c-3.784,0-7.569.034-11.353.034V2.386H6.06V-4.7h6.812C24.673-4.7,24.638-21.731,12.872-21.731Zm10.872,7.156V2.386h4.2V-6.559a3.913,3.913,0,0,1,4.232-4.3,4.193,4.193,0,0,1,3.028,1.1l1.892-3.647a6.436,6.436,0,0,0-4.369-1.617,5,5,0,0,0-4.782,2.408l-.31-1.961Zm22.913-.344a8.489,8.489,0,0,0-8.773,8.842c0,4.885,3.3,8.842,8.807,8.842a8.468,8.468,0,0,0,8.842-8.842A8.574,8.574,0,0,0,46.656-14.919Zm.034,3.819A4.79,4.79,0,0,1,51.3-6.077c0,2.58-1.548,4.989-4.61,4.989s-4.61-2.408-4.61-4.989C42.081-8.623,43.663-11.1,46.691-11.1ZM73.9,2.386V-6.7c0-2.236,1.411-4.2,3.681-4.2s3.2,1.892,3.2,4.128V2.386h4.2V-6.765c0-5.092-2.374-8.05-7.19-8.05a6.142,6.142,0,0,0-5.677,3.1,5.082,5.082,0,0,0-5.023-3.165,4.914,4.914,0,0,0-4.472,2.339l-.31-2.064H58.422v17h4.2V-6.7c0-2.236,1.342-4.266,3.612-4.266,2.305,0,3.475,2.03,3.475,4.266V2.386Z" transform="translate(458.496 101)" fill="url(#a)"/><g transform="translate(-51.326 -399.66)"><path d="M386.294,570.774v15.975h-9.968V565h4.195A5.773,5.773,0,0,1,386.294,570.774Z" transform="translate(0 -75.168)" fill="url(#b)"/><path d="M418.738,485.493A14.319,14.319,0,0,1,405,499.8v1.678l-.062,10.1h-9.968V495.606a5.773,5.773,0,0,1,5.773-5.773h3.533c.05,0,.1,0,.149,0s.1,0,.149,0a4.339,4.339,0,0,0-.075-8.674c-.024,0-.05,0-.074,0s-.05,0-.075,0H383.1a5.773,5.773,0,0,1-5.773-5.773v-4.195h27.858a14.307,14.307,0,0,1,13.555,14.3Z" transform="translate(-1 0)" fill="url(#c)"/></g></g></svg>