<svg xmlns="http://www.w3.org/2000/svg" xmlns:xlink="http://www.w3.org/1999/xlink" width="94" height="94" viewBox="0 0 94 94"><defs><linearGradient id="a" x1="0.5" y1="1.416" x2="0.5" gradientUnits="objectBoundingBox"><stop offset="0" stop-color="#ff5d0e"/><stop offset="1" stop-color="#ffad84"/></linearGradient><filter id="b" x="0" y="0" width="94" height="94" filterUnits="userSpaceOnUse"><feOffset dx="4" dy="4" input="SourceAlpha"/><feGaussianBlur stdDeviation="7.5" result="c"/><feFlood flood-color="#ff8c53" flood-opacity="0.149"/><feComposite operator="in" in2="c"/><feComposite in="SourceGraphic"/></filter></defs><g transform="translate(-1283.5 -697.5)"><g transform="matrix(1, 0, 0, 1, 1283.5, 697.5)" filter="url(#b)"><rect width="49" height="49" rx="10" transform="translate(18.5 18.5)" fill="url(#a)"/></g><path d="M293.34,272h-4.272A1.068,1.068,0,0,0,288,273.068v8.544a1.068,1.068,0,0,0,1.068,1.068h4.272a2.136,2.136,0,0,0,2.136-2.136v-6.408A2.136,2.136,0,0,0,293.34,272Zm0,8.544h-3.2v-6.408h3.2Z" transform="translate(1035.544 464)" fill="#fff"/><path d="M416,273.068v9.612h2.136v-4.272h4.272v-2.136h-4.272v-2.136h4.272V272h-5.34A1.068,1.068,0,0,0,416,273.068Z" transform="translate(916.088 464)" fill="#fff"/><path d="M165.34,272h-4.272A1.068,1.068,0,0,0,160,273.068v9.612h2.136v-3.2h3.2a2.136,2.136,0,0,0,2.136-2.136v-3.2A2.136,2.136,0,0,0,165.34,272Zm0,5.34h-3.2v-3.2h3.2Z" transform="translate(1155 464)" fill="#fff"/></g></svg>