<svg xmlns="http://www.w3.org/2000/svg" xmlns:xlink="http://www.w3.org/1999/xlink" width="55" height="48.887" viewBox="0 0 55 48.887"><defs><filter id="a" x="19" y="1.887" width="36" height="43" filterUnits="userSpaceOnUse"><feOffset dy="6" input="SourceAlpha"/><feGaussianBlur stdDeviation="5" result="b"/><feFlood flood-color="#7994fb"/><feComposite operator="in" in2="b"/><feComposite in="SourceGraphic"/></filter><filter id="c" x="0" y="12.887" width="36" height="36" filterUnits="userSpaceOnUse"><feOffset dy="6" input="SourceAlpha"/><feGaussianBlur stdDeviation="5" result="d"/><feFlood flood-color="#7994fb"/><feComposite operator="in" in2="d"/><feComposite in="SourceGraphic"/></filter><linearGradient id="e" x1="-0.144" y1="1.261" x2="0.701" y2="0.451" gradientUnits="objectBoundingBox"><stop offset="0" stop-color="#5a79f3"/><stop offset="1" stop-color="#86a0ff"/></linearGradient><linearGradient id="f" x1="0.243" y1="1.128" x2="0.841" y2="-0.208" gradientUnits="objectBoundingBox"><stop offset="0" stop-color="#ff5d0e"/><stop offset="1" stop-color="#ffad84"/></linearGradient><linearGradient id="g" x1="-0.373" y1="1.166" x2="0.682" y2="0.463" xlink:href="#e"/><linearGradient id="h" x1="-0.044" y1="1" x2="1.222" y2="-0.099" gradientUnits="objectBoundingBox"><stop offset="0" stop-color="#384c98"/><stop offset="1" stop-color="#7692fb"/></linearGradient></defs><g transform="translate(-254.333 -607.897)"><g transform="matrix(1, 0, 0, 1, 254.33, 607.9)" filter="url(#a)"><rect width="6" height="13" transform="translate(34 10.89)" fill="#fff"/></g><g transform="matrix(1, 0, 0, 1, 254.33, 607.9)" filter="url(#c)"><rect width="6" height="6" transform="translate(15 21.89)" fill="#fff"/></g><g transform="translate(268.498 607.897)"><g transform="translate(0)"><path d="M296.27,696.034H293.7a4.623,4.623,0,0,1-4.623-4.623V688.4a2.157,2.157,0,0,1,2.157-2.157h2.882a2.157,2.157,0,0,1,2.157,2.157Z" transform="translate(-289.073 -666.329)" fill="url(#e)"/><path d="M326.486,682.724h-7.2v-13.56a2.157,2.157,0,0,1,2.157-2.157h2.882a2.157,2.157,0,0,1,2.157,2.157Z" transform="translate(-309.977 -653.02)" fill="url(#f)"/><path d="M352.08,669.416h-2.574V649.927a2.157,2.157,0,0,1,2.157-2.157h2.882a2.157,2.157,0,0,1,2.157,2.157v14.866A4.623,4.623,0,0,1,352.08,669.416Z" transform="translate(-330.882 -639.711)" fill="url(#g)"/><path d="M315.794,622.457l-5.078-.832a.37.37,0,0,0-.385.542l.888,1.633a.693.693,0,0,1-.271.937l-21.471,12.131a.794.794,0,0,0-.4.692v.5a.5.5,0,0,0,.741.436l21.968-12.19a.694.694,0,0,1,.948.274l.818,1.5a.37.37,0,0,0,.669-.039l1.968-4.9A.51.51,0,0,0,315.794,622.457Z" transform="translate(-289.073 -621.62)" fill="url(#h)"/></g></g></g></svg>