<svg xmlns="http://www.w3.org/2000/svg" xmlns:xlink="http://www.w3.org/1999/xlink" width="20" height="20" viewBox="0 0 20 20"><defs><clipPath id="a"><rect width="20" height="20" transform="translate(1234 731)" fill="#fff" stroke="#707070" stroke-width="1"/></clipPath></defs><g transform="translate(-1234 -731)" clip-path="url(#a)"><g transform="translate(1230.667 727.667)"><path d="M13.333,4.167A9.167,9.167,0,1,0,22.5,13.333,9.167,9.167,0,0,0,13.333,4.167Zm3.3,6.6L14.25,17.933a.587.587,0,0,1-1.113,0l-1.1-3.3-3.3-1.1a.587.587,0,0,1,0-1.113L15.9,10.029A.588.588,0,0,1,16.637,10.771Z" fill="#fff" opacity="0.1"/><path d="M15.631,9.24,8.47,11.627a1.419,1.419,0,0,0,0,2.693l2.908.969.969,2.908a1.419,1.419,0,0,0,2.692,0l2.387-7.161A1.419,1.419,0,0,0,15.631,9.24Zm-1.938,7.724-1-2.993-2.993-1,5.986-2Z" fill="#fff"/><path d="M13.333,3.333a10,10,0,1,0,10,10A10.011,10.011,0,0,0,13.333,3.333Zm0,18.333a8.333,8.333,0,1,1,8.333-8.333A8.343,8.343,0,0,1,13.333,21.667Z" fill="#fff"/></g></g></svg>