<svg xmlns="http://www.w3.org/2000/svg" xmlns:xlink="http://www.w3.org/1999/xlink" width="130.329" height="133.194" viewBox="0 0 130.329 133.194"><defs><filter id="a" x="0" y="0" width="130.329" height="133.194" filterUnits="userSpaceOnUse"><feOffset dy="4" input="SourceAlpha"/><feGaussianBlur stdDeviation="5" result="b"/><feFlood flood-color="#ff6f29" flood-opacity="0.412"/><feComposite operator="in" in2="b"/><feComposite in="SourceGraphic"/></filter></defs><g transform="translate(21.596 7.484) rotate(7)"><path d="M10.261,6.172,76.977,18.761l15,14.158L79.9,51.811,45.156,92.473Z" transform="translate(-1.198 -0.481)" fill="#fafbff" opacity="0"/><g transform="matrix(0.99, -0.12, 0.12, 0.99, -22.35, -4.8)" filter="url(#a)"><path d="M0,0,68.927,13.163,74.32,18.12,85.669,28.553,36.737,88.959Z" transform="matrix(0.99, 0.12, -0.12, 0.99, 28.07, 13.23)" fill="none" stroke="#ff6f29" stroke-linecap="round" stroke-linejoin="round" stroke-width="4"/></g><path d="M40.315,32.71,0,0" transform="translate(10.716 7.468)" fill="none" stroke="#ff6f29" stroke-width="2"/><path d="M25.1,0,0,21.929" transform="translate(50.911 18.149)" fill="none" stroke="#ff6f29" stroke-width="3"/><path d="M41.664,0,0,6.679" transform="translate(50.952 33.477)" fill="none" stroke="#ff6f29" stroke-width="3"/><path d="M0,53.378,6.967,0" transform="translate(43.979 40.032)" fill="none" stroke="#ff6f29" stroke-width="3"/></g></svg>