<svg xmlns="http://www.w3.org/2000/svg" xmlns:xlink="http://www.w3.org/1999/xlink" width="43.808" height="33.291" viewBox="0 0 43.808 33.291"><defs><linearGradient id="a" x1="0.5" y1="1.166" x2="0.884" y2="0.113" gradientUnits="objectBoundingBox"><stop offset="0" stop-color="#fb7e11"/><stop offset="0.512" stop-color="#ffde62"/><stop offset="1" stop-color="#fea51e"/></linearGradient><filter id="b" x="5.027" y="0" width="33.94" height="33.246" filterUnits="userSpaceOnUse"><feOffset dy="3" input="SourceAlpha"/><feGaussianBlur stdDeviation="3" result="c"/><feFlood flood-color="#fc8d19" flood-opacity="0.435"/><feComposite operator="in" in2="c"/><feComposite in="SourceGraphic"/></filter><linearGradient id="d" x1="0.5" x2="0.5" y2="1" gradientUnits="objectBoundingBox"><stop offset="0" stop-color="#ffe174"/><stop offset="1" stop-color="#fc8712"/></linearGradient><filter id="e" x="0" y="1.915" width="19.808" height="31.375" filterUnits="userSpaceOnUse"><feOffset dy="3" input="SourceAlpha"/><feGaussianBlur stdDeviation="1.5" result="f"/><feFlood flood-color="#ffda5d" flood-opacity="0.314"/><feComposite operator="in" in2="f"/><feComposite in="SourceGraphic"/></filter><filter id="h" x="24" y="1.915" width="19.808" height="31.375" filterUnits="userSpaceOnUse"><feOffset dy="3" input="SourceAlpha"/><feGaussianBlur stdDeviation="1.5" result="i"/><feFlood flood-color="#ffdd60" flood-opacity="0.192"/><feComposite operator="in" in2="i"/><feComposite in="SourceGraphic"/></filter></defs><g transform="translate(-826.601 -413.585)"><g transform="matrix(1, 0, 0, 1, 826.6, 413.58)" filter="url(#b)"><path d="M893.023,425.492l1.778,3.6a.884.884,0,0,0,.665.483l3.977.578a.883.883,0,0,1,.49,1.507l-2.878,2.805a.883.883,0,0,0-.254.782l.679,3.961a.883.883,0,0,1-1.282.931l-3.557-1.87a.883.883,0,0,0-.822,0l-3.557,1.87a.883.883,0,0,1-1.282-.931l.679-3.961a.883.883,0,0,0-.254-.782l-2.878-2.805a.883.883,0,0,1,.49-1.507l3.977-.578a.883.883,0,0,0,.665-.483l1.779-3.6A.883.883,0,0,1,893.023,425.492Z" transform="translate(-870.23 -419)" fill="url(#a)"/></g><g transform="matrix(1, 0, 0, 1, 826.6, 413.58)" filter="url(#e)"><path d="M843.032,435.764a5.66,5.66,0,0,1-5.621-.288,5.43,5.43,0,0,1-2.589-3.791.491.491,0,0,1,.042-.248c.154-.336.8-1.12,3.412-1.006l-.288-.865s-3.214.833-4.558-2.909a5.788,5.788,0,0,1-.324-2.175,6.226,6.226,0,0,1,.269-1.979c.288-.432,1.585-.721,3.747,1.009l.144-1.009a4.022,4.022,0,0,1-2.162-4.756s.865-2.739,2.594-3.747a3.952,3.952,0,0,1,2.43,3.6c.016.176.037.352.061.528a5.589,5.589,0,0,1-.563,3.14,5.641,5.641,0,0,0-.424,1.138,10.489,10.489,0,0,0,2.1,9.182,17.034,17.034,0,0,0,2.128,1.966,1.092,1.092,0,0,1,.469,1.049l0,.011A1.826,1.826,0,0,1,843.032,435.764Z" transform="translate(-828.6 -410.58)" fill="url(#d)"/></g><g transform="matrix(1, 0, 0, 1, 826.6, 413.58)" filter="url(#h)"><path d="M833.979,435.764a5.66,5.66,0,0,0,5.621-.288,5.43,5.43,0,0,0,2.589-3.791.491.491,0,0,0-.042-.248c-.154-.336-.8-1.12-3.412-1.006l.288-.865s3.214.833,4.558-2.909a5.788,5.788,0,0,0,.324-2.175,6.226,6.226,0,0,0-.269-1.979c-.288-.432-1.585-.721-3.747,1.009l-.144-1.009a4.022,4.022,0,0,0,2.162-4.756s-.865-2.739-2.594-3.747a3.952,3.952,0,0,0-2.43,3.6c-.016.176-.037.352-.061.528a5.589,5.589,0,0,0,.563,3.14,5.641,5.641,0,0,1,.424,1.138,10.489,10.489,0,0,1-2.1,9.182,17.034,17.034,0,0,1-2.128,1.966,1.092,1.092,0,0,0-.469,1.049l0,.011A1.826,1.826,0,0,0,833.979,435.764Z" transform="translate(-804.6 -410.58)" fill="url(#d)"/></g></g></svg>