<svg xmlns="http://www.w3.org/2000/svg" xmlns:xlink="http://www.w3.org/1999/xlink" width="20" height="20" viewBox="0 0 20 20"><defs><clipPath id="a"><rect width="20" height="20" transform="translate(1243 733)" fill="#fff" stroke="#707070" stroke-width="1"/></clipPath></defs><g transform="translate(-1243 -733)" clip-path="url(#a)"><g transform="translate(1243 733)"><path d="M10,20a3.444,3.444,0,0,1-2.358-1.394,3.6,3.6,0,0,0-.888-.775,3.776,3.776,0,0,0-1.256-.1,3.437,3.437,0,0,1-2.592-.666,3.325,3.325,0,0,1-.645-2.588,3.732,3.732,0,0,0-.1-1.256,3.6,3.6,0,0,0-.775-.888A3.409,3.409,0,0,1,0,10,3.5,3.5,0,0,1,1.39,7.642a3.6,3.6,0,0,0,.775-.888,3.734,3.734,0,0,0,.1-1.256A3.427,3.427,0,0,1,2.927,2.91a3.363,3.363,0,0,1,2.592-.666,3.722,3.722,0,0,0,1.256-.1,3.608,3.608,0,0,0,.888-.775A3.451,3.451,0,0,1,10,0a3.489,3.489,0,0,1,2.358,1.394,3.6,3.6,0,0,0,.888.775,3.734,3.734,0,0,0,1.256.1,3.437,3.437,0,0,1,2.592.666,3.341,3.341,0,0,1,.666,2.588,3.732,3.732,0,0,0,.1,1.256,3.6,3.6,0,0,0,.775.888A3.462,3.462,0,0,1,20,10a3.5,3.5,0,0,1-1.39,2.358,3.6,3.6,0,0,0-.775.888,3.734,3.734,0,0,0-.1,1.256,3.427,3.427,0,0,1-.666,2.588,3.363,3.363,0,0,1-2.592.666,3.712,3.712,0,0,0-1.256.1,3.608,3.608,0,0,0-.888.775A3.451,3.451,0,0,1,10,20ZM5.9,16a3.911,3.911,0,0,1,1.512.23A4.608,4.608,0,0,1,8.89,17.408c.364.381.838.858,1.106.858s.741-.477,1.106-.858a4.608,4.608,0,0,1,1.474-1.177A4.783,4.783,0,0,1,14.506,16a3.067,3.067,0,0,0,1.336-.159c.18-.159.168-.838.159-1.336a4.783,4.783,0,0,1,.226-1.93A4.608,4.608,0,0,1,17.4,11.106c.381-.364.858-.838.858-1.106s-.477-.741-.858-1.106A4.608,4.608,0,0,1,16.227,7.42,4.776,4.776,0,0,1,16,5.49a3.067,3.067,0,0,0-.159-1.336c-.159-.18-.838-.172-1.336-.159a4.791,4.791,0,0,1-1.93-.226A4.608,4.608,0,0,1,11.1,2.592c-.364-.381-.838-.858-1.106-.858s-.741.477-1.106.858A4.608,4.608,0,0,1,7.416,3.769a4.791,4.791,0,0,1-1.93.226,3.067,3.067,0,0,0-1.336.159c-.18.159-.168.838-.159,1.336a4.783,4.783,0,0,1-.226,1.93A4.608,4.608,0,0,1,2.588,8.894c-.381.364-.858.838-.858,1.106s.477.741.858,1.106A4.608,4.608,0,0,1,3.765,12.58a4.776,4.776,0,0,1,.226,1.93,3.067,3.067,0,0,0,.159,1.336c.159.18.838.167,1.336.159Z" fill="#fff"/><path d="M7.921,11.464a.863.863,0,0,1-.54-.188L5.288,9.6a.864.864,0,0,1,1.08-1.348L7.859,9.445l3.22-3.22A.865.865,0,0,1,12.3,7.448L8.533,11.216A.864.864,0,0,1,7.921,11.464Z" transform="translate(1.241 1.493)" fill="#fff"/></g></g></svg>